<?xml version="1.0" encoding="UTF-8" standalone="no"?>
<!DOCTYPE svg PUBLIC "-//W3C//DTD SVG 1.1//EN" "http://www.w3.org/Graphics/SVG/1.1/DTD/svg11.dtd">
<svg width="100%" height="100%" viewBox="0 0 2000 2000" version="1.1" xmlns="http://www.w3.org/2000/svg" xmlns:xlink="http://www.w3.org/1999/xlink" xml:space="preserve" xmlns:serif="http://www.serif.com/" style="fill-rule:evenodd;clip-rule:evenodd;">
    <g id="Main">
        <g>
            <path d="M1000.5,583.38C1189.84,583.38 1343.33,736.868 1343.33,926.205C1342.81,980.35 1331,1035.92 1305,1083.79C1207.88,1048.86 1103.74,1037.05 1001,1036.53C898.094,1037.39 793.359,1048.49 696.167,1084.09C670.158,1035.69 658.367,980.843 657.675,926.204C657.675,736.868 811.163,583.38 1000.5,583.38Z" style="fill:rgb(255,112,0);fill-rule:nonzero;"/>
            <path d="M1000.5,583.38C1189.84,583.38 1343.33,736.868 1343.33,926.205C1342.81,980.35 1331,1035.92 1305,1083.79C1207.88,1048.86 1103.74,1037.05 1001,1036.53C898.094,1037.39 793.359,1048.49 696.167,1084.09C670.158,1035.69 658.367,980.843 657.675,926.204C657.675,736.868 811.163,583.38 1000.5,583.38Z" style="fill-opacity:0;fill-rule:nonzero;stroke:black;stroke-width:5px;"/>
        </g>
        <path d="M1000,582.88C1113.91,582.682 1221.31,641.008 1284.89,735.109C1207.9,803.254 1100.37,827.023 1000,827.797C900.584,826.68 791.06,803.557 715.114,735.109C779.5,638.787 884.761,584.338 1000,582.88Z" style="fill:rgb(238,238,238);fill-rule:nonzero;"/>
        <g>
            <path d="M1001.08,1036.81C1103.82,1037.34 1207.96,1049.15 1305.08,1084.07L1306.08,1082.19C1245.64,1197.81 1130.86,1267.67 1000.58,1269.31C896.032,1269.35 795.458,1220.33 730.877,1138.14C717.206,1120.75 704.544,1101.82 694.921,1081.85L696.249,1084.38C793.441,1048.77 898.176,1037.68 1001.08,1036.81Z" style="fill-rule:nonzero;"/>
            <path d="M1001.08,1036.81C1103.82,1037.34 1207.96,1049.15 1305.08,1084.07L1306.08,1082.19C1245.64,1197.81 1130.86,1267.67 1000.58,1269.31C896.032,1269.35 795.458,1220.33 730.877,1138.14C717.206,1120.75 704.544,1101.82 694.921,1081.85L696.249,1084.38C793.441,1048.77 898.176,1037.68 1001.08,1036.81Z" style="fill-opacity:0;fill-rule:nonzero;stroke:black;stroke-width:5px;"/>
        </g>
        <path d="M1284.89,735.109C1320.32,819.145 1315.09,940.862 1283.78,1016.05C1283.34,1017.33 1277.1,1011.13 1275.08,1009C1270.18,1003.83 1265.28,998.646 1260.5,993.361C1237.67,968.15 1197.03,920.306 1198.04,890.776C1198.04,890.742 1198.08,890.719 1198.1,890.691C1199.8,887.551 1201.51,884.412 1203.21,881.273C1210.42,866.301 1214.09,849.838 1214.14,833.237C1213.94,825.296 1213.51,817.31 1211.48,809.588C1220.03,816.648 1230.41,820.888 1241.62,820.82C1267.15,820.82 1287.51,800.501 1287.51,774.594C1287.51,761.64 1282.97,751.979 1275.39,743.151L1284.89,735.109Z" style="fill:rgb(174,138,104);fill-rule:nonzero;"/>
        <path d="M715.114,735.109C675.422,838.294 691.627,947.095 716.41,1017.35C716.862,1018.63 725.623,1016 727.64,1013.87C732.542,1008.69 738.236,1002.9 743.021,997.613C765.846,972.402 795.665,940.843 808.544,900.203C799.041,886.948 798.722,882.59 797.017,879.451C789.81,864.479 786.099,851.145 786.054,834.543C786.254,826.602 786.305,818.821 789.06,808.036C781.438,818.397 768.797,821.191 757.598,820.796C735.991,820.033 714.07,801.029 714.07,775.498C714.36,764.046 717.159,752.271 725.329,743.952L715.114,735.109Z" style="fill:rgb(174,138,104);fill-rule:nonzero;"/>
        <path d="M1152.06,931.084C1146.25,933.557 1197.58,1024.17 1105.7,1016.05C1118.85,1013.72 1212.26,1027.18 1217.02,1028.83C1221.78,1030.46 1249.05,1011.65 1282.86,1018.17C1286.67,1019.11 1192.85,932.742 1197.82,886.404C1186.56,905.566 1170.88,923.069 1152.06,931.084Z" style="fill:rgb(0,202,255);fill-rule:nonzero;"/>
        <path d="M856.103,930.614C861.911,933.088 810.586,1023.71 902.458,1015.58C889.31,1013.25 795.906,1026.72 791.143,1028.36C786.38,1030 759.114,1011.18 725.299,1017.71C721.487,1018.63 815.316,932.273 810.341,885.935C821.597,905.096 837.285,922.599 856.103,930.614Z" style="fill:rgb(0,202,255);fill-rule:nonzero;"/>
        <g>
            <path d="M1241.28,820.82C1215.75,820.82 1195.05,800.124 1195.05,774.594C1195.05,749.063 1215.75,728.367 1241.28,728.367C1266.81,728.367 1287.51,749.063 1287.51,774.594C1287.51,800.124 1266.81,820.82 1241.28,820.82Z" style="fill:white;fill-rule:nonzero;"/>
            <g>
                <path d="M1241.25,815.236C1219.3,815.236 1201.5,797.44 1201.5,775.486C1201.5,753.533 1219.3,735.736 1241.25,735.736C1263.2,735.736 1281,753.533 1281,775.486C1281,797.44 1263.2,815.236 1241.25,815.236Z" style="fill:rgb(41,40,40);fill-rule:nonzero;"/>
                <path d="M1241.25,815.236C1219.3,815.236 1201.5,797.44 1201.5,775.486C1201.5,753.533 1219.3,735.736 1241.25,735.736C1263.2,735.736 1281,753.533 1281,775.486C1281,797.44 1263.2,815.236 1241.25,815.236Z" style="fill-opacity:0;fill-rule:nonzero;stroke:black;stroke-width:5px;"/>
            </g>
            <path d="M1255.79,772.095C1249.17,772.095 1243.79,766.722 1243.79,760.095C1243.79,753.468 1249.17,748.095 1255.79,748.095C1262.42,748.095 1267.79,753.468 1267.79,760.095C1267.79,766.722 1262.42,772.095 1255.79,772.095Z" style="fill:white;fill-rule:nonzero;"/>
            <path d="M759.799,820.816C734.268,820.816 713.572,800.12 713.572,774.59C713.572,749.06 734.268,728.363 759.799,728.363C785.329,728.363 806.025,749.06 806.025,774.59C806.025,800.12 785.329,820.816 759.799,820.816Z" style="fill:white;fill-rule:nonzero;"/>
            <g>
                <path d="M759.75,815.236C737.797,815.236 720,797.44 720,775.486C720,753.533 737.797,735.736 759.75,735.736C781.703,735.736 799.5,753.533 799.5,775.486C799.5,797.44 781.703,815.236 759.75,815.236Z" style="fill:rgb(41,40,40);fill-rule:nonzero;"/>
                <path d="M759.75,815.236C737.797,815.236 720,797.44 720,775.486C720,753.533 737.797,735.736 759.75,735.736C781.703,735.736 799.5,753.533 799.5,775.486C799.5,797.44 781.703,815.236 759.75,815.236Z" style="fill-opacity:0;fill-rule:nonzero;stroke:black;stroke-width:5px;"/>
            </g>
            <path d="M1103,944.037C1041.81,944.037 992.2,894.43 992.2,833.236C992.2,772.043 1041.81,722.436 1103,722.436C1164.19,722.436 1213.8,772.043 1213.8,833.236C1213.8,894.43 1164.19,944.037 1103,944.037Z" style="fill:white;fill-rule:nonzero;"/>
            <path d="M897,943.884C835.807,943.884 786.2,894.277 786.2,833.084C786.2,771.89 835.807,722.283 897,722.283C958.193,722.283 1007.8,771.89 1007.8,833.084C1007.8,894.277 958.193,943.884 897,943.884Z" style="fill:white;fill-rule:nonzero;"/>
            <g>
                <path d="M1103.5,931.736C1049.38,931.736 1005.5,887.86 1005.5,833.736C1005.5,779.612 1049.38,735.736 1103.5,735.736C1157.62,735.736 1201.5,779.612 1201.5,833.736C1201.5,887.86 1157.62,931.736 1103.5,931.736Z" style="fill:rgb(41,40,40);fill-rule:nonzero;"/>
                <path d="M1103.5,931.736C1049.38,931.736 1005.5,887.86 1005.5,833.736C1005.5,779.612 1049.38,735.736 1103.5,735.736C1157.62,735.736 1201.5,779.612 1201.5,833.736C1201.5,887.86 1157.62,931.736 1103.5,931.736Z" style="fill-opacity:0;fill-rule:nonzero;stroke:black;stroke-width:5px;"/>
            </g>
            <g>
                <path d="M897.5,931.584C843.376,931.584 799.5,887.708 799.5,833.584C799.5,779.46 843.376,735.584 897.5,735.584C951.624,735.584 995.5,779.46 995.5,833.584C995.5,887.708 951.624,931.584 897.5,931.584Z" style="fill:rgb(41,40,40);fill-rule:nonzero;"/>
                <path d="M897.5,931.584C843.376,931.584 799.5,887.708 799.5,833.584C799.5,779.46 843.376,735.584 897.5,735.584C951.624,735.584 995.5,779.46 995.5,833.584C995.5,887.708 951.624,931.584 897.5,931.584Z" style="fill-opacity:0;fill-rule:nonzero;stroke:black;stroke-width:5px;"/>
            </g>
            <path d="M938.302,798.039C927.256,798.039 918.302,789.084 918.302,778.039C918.302,766.993 927.256,758.039 938.302,758.039C949.347,758.039 958.302,766.993 958.302,778.039C958.302,789.084 949.347,798.039 938.302,798.039Z" style="fill:white;fill-rule:nonzero;"/>
            <path d="M1145.48,798.039C1134.44,798.039 1125.48,789.084 1125.48,778.039C1125.48,766.993 1134.44,758.039 1145.48,758.039C1156.53,758.039 1165.48,766.993 1165.48,778.039C1165.48,789.084 1156.53,798.039 1145.48,798.039Z" style="fill:white;fill-rule:nonzero;"/>
            <path d="M774.79,772.095C768.162,772.095 762.79,766.722 762.79,760.095C762.79,753.468 768.162,748.095 774.79,748.095C781.417,748.095 786.79,753.468 786.79,760.095C786.79,766.722 781.417,772.095 774.79,772.095Z" style="fill:white;fill-rule:nonzero;"/>
        </g>
        <g>
            <path d="M997.4,1036.87L997.4,1269.27C892.825,1268.51 796.25,1218.89 730.877,1138.14C717.206,1120.75 704.544,1101.82 694.921,1081.85L696.249,1084.38C792.487,1049.02 895.49,1038.37 997.4,1036.87Z" style="fill:rgb(52,52,52);fill-rule:nonzero;"/>
            <path d="M997.4,1036.87L997.4,1269.27C892.825,1268.51 796.25,1218.89 730.877,1138.14C717.206,1120.75 704.544,1101.82 694.921,1081.85L696.249,1084.38C792.487,1049.02 895.49,1038.37 997.4,1036.87Z" style="fill-opacity:0;fill-rule:nonzero;stroke:black;stroke-width:5px;"/>
        </g>
        <g>
            <path d="M1003.6,1036.84C1105.84,1037.04 1208.38,1050.09 1305.08,1084.07C1246.09,1196.76 1130.32,1266.61 1003.6,1269.25L1003.6,1036.84Z" style="fill:rgb(52,52,52);fill-rule:nonzero;"/>
            <path d="M1003.6,1036.84C1105.84,1037.04 1208.38,1050.09 1305.08,1084.07C1246.09,1196.76 1130.32,1266.61 1003.6,1269.25L1003.6,1036.84Z" style="fill-opacity:0;fill-rule:nonzero;stroke:black;stroke-width:5px;"/>
        </g>
        <g>
            <path d="M1001.21,1014.43C1108.46,1015.44 1216.46,1023.59 1321,1048.77C1316.6,1060.84 1311.02,1072.45 1305,1083.79C1207.88,1048.86 1103.74,1037.05 1001,1036.53C898.094,1037.39 793.359,1048.49 696.167,1084.09C689.983,1072.75 684.769,1060.93 680.257,1048.83C785.266,1023.54 893.524,1016.02 1001.21,1014.43Z" style="fill:rgb(31,31,31);fill-rule:nonzero;"/>
            <path d="M1001.21,1014.43C1108.46,1015.44 1216.46,1023.59 1321,1048.77C1316.6,1060.84 1311.02,1072.45 1305,1083.79C1207.88,1048.86 1103.74,1037.05 1001,1036.53C898.094,1037.39 793.359,1048.49 696.167,1084.09C689.983,1072.75 684.769,1060.93 680.257,1048.83C785.266,1023.54 893.524,1016.02 1001.21,1014.43Z" style="fill-opacity:0;fill-rule:nonzero;stroke:black;stroke-width:5px;"/>
        </g>
        <g>
            <path d="M726.436,1016.17C791.425,1017.62 858.143,1071.54 901.603,1114.09C941.486,1155.7 986.741,1210.6 997.755,1269.31C855.574,1267.72 737.202,1183.49 682.321,1053.73C683.371,1044.15 687.306,1035.36 693.899,1028.35C702.806,1019.43 714.304,1016.94 726.436,1016.17Z" style="fill:rgb(245,214,186);fill-rule:nonzero;"/>
            <path d="M726.436,1016.17C791.425,1017.62 858.143,1071.54 901.603,1114.09C941.486,1155.7 986.741,1210.6 997.755,1269.31C855.574,1267.72 737.202,1183.49 682.321,1053.73C683.371,1044.15 687.306,1035.36 693.899,1028.35C702.806,1019.43 714.304,1016.94 726.436,1016.17Z" style="fill-opacity:0;fill-rule:nonzero;stroke:black;stroke-width:5px;"/>
        </g>
        <g>
            <path d="M1274.32,1016.17C1209.33,1017.62 1142.61,1071.54 1099.15,1114.09C1059.27,1155.7 1014.01,1210.6 1003,1269.31C1145.18,1267.72 1263.55,1183.49 1318.43,1053.73C1317.38,1044.15 1313.45,1035.36 1306.85,1028.35C1297.95,1019.43 1286.45,1016.94 1274.32,1016.17Z" style="fill:rgb(245,214,186);fill-rule:nonzero;"/>
            <path d="M1274.32,1016.17C1209.33,1017.62 1142.61,1071.54 1099.15,1114.09C1059.27,1155.7 1014.01,1210.6 1003,1269.31C1145.18,1267.72 1263.55,1183.49 1318.43,1053.73C1317.38,1044.15 1313.45,1035.36 1306.85,1028.35C1297.95,1019.43 1286.45,1016.94 1274.32,1016.17Z" style="fill-opacity:0;fill-rule:nonzero;stroke:black;stroke-width:5px;"/>
        </g>
        <g>
            <g>
                <path d="M925.023,591.97C926.88,616.082 939.39,646.375 947.603,668.276C948.225,669.934 953.066,685.432 954.72,684.881C956.657,684.235 955.313,669.522 955.313,667.09C955.313,642.39 961.729,607.986 970.897,585.068L925.023,591.97Z" style="fill-rule:nonzero;"/>
                <path d="M925.023,591.97C926.88,616.082 939.39,646.375 947.603,668.276C948.225,669.934 953.066,685.432 954.72,684.881C956.657,684.235 955.313,669.522 955.313,667.09C955.313,642.39 961.729,607.986 970.897,585.068L925.023,591.97Z" style="fill-opacity:0;fill-rule:nonzero;stroke:black;stroke-width:4.5px;stroke-linecap:round;stroke-linejoin:round;"/>
            </g>
            <g>
                <path d="M847.8,619.581C848.059,627.217 885.92,689.035 890.67,686.66C892.228,685.881 886.248,666.332 885.926,664.717C882.703,648.606 882.578,619.959 886.627,603.762L847.8,619.581Z" style="fill-rule:nonzero;"/>
                <path d="M847.8,619.581C848.059,627.217 885.92,689.035 890.67,686.66C892.228,685.881 886.248,666.332 885.926,664.717C882.703,648.606 882.578,619.959 886.627,603.762L847.8,619.581Z" style="fill-opacity:0;fill-rule:nonzero;stroke:black;stroke-width:4.5px;stroke-linecap:round;stroke-linejoin:round;"/>
            </g>
            <g>
                <path d="M790.622,656.609C794.788,660.334 835.845,705.574 840.261,696.742C840.883,695.498 836.77,691.21 836.109,690.219C826.83,676.299 822.612,650.108 822.612,633.512L790.622,656.609Z" style="fill-rule:nonzero;"/>
                <path d="M790.622,656.609C794.788,660.334 835.845,705.574 840.261,696.742C840.883,695.498 836.77,691.21 836.109,690.219C826.83,676.299 822.612,650.108 822.612,633.512L790.622,656.609Z" style="fill-opacity:0;fill-rule:nonzero;stroke:black;stroke-width:4.5px;stroke-linecap:round;stroke-linejoin:round;"/>
            </g>
            <g>
                <path d="M755.766,686.727C758.12,690.031 786.886,724.806 786.886,725.756C786.886,734.213 744.427,706.117 741.205,702.895L755.766,686.727Z" style="fill-rule:nonzero;"/>
                <path d="M755.766,686.727C758.12,690.031 786.886,724.806 786.886,725.756C786.886,734.213 744.427,706.117 741.205,702.895L755.766,686.727Z" style="fill-opacity:0;fill-rule:nonzero;stroke:black;stroke-width:4.5px;stroke-linecap:round;stroke-linejoin:round;"/>
            </g>
            <g>
                <path d="M1075.62,591.97C1073.77,616.082 1061.26,646.375 1053.04,668.276C1052.42,669.934 1047.58,685.432 1045.92,684.881C1043.99,684.235 1045.33,669.522 1045.33,667.09C1045.33,642.39 1038.91,607.986 1029.75,585.068L1075.62,591.97Z" style="fill-rule:nonzero;"/>
                <path d="M1075.62,591.97C1073.77,616.082 1061.26,646.375 1053.04,668.276C1052.42,669.934 1047.58,685.432 1045.92,684.881C1043.99,684.235 1045.33,669.522 1045.33,667.09C1045.33,642.39 1038.91,607.986 1029.75,585.068L1075.62,591.97Z" style="fill-opacity:0;fill-rule:nonzero;stroke:black;stroke-width:4.5px;stroke-linecap:round;stroke-linejoin:round;"/>
            </g>
            <g>
                <path d="M1152.85,619.581C1152.59,627.217 1114.72,689.035 1109.98,686.66C1108.42,685.881 1114.4,666.332 1114.72,664.717C1117.94,648.606 1118.07,619.959 1114.02,603.762L1152.85,619.581Z" style="fill-rule:nonzero;"/>
                <path d="M1152.85,619.581C1152.59,627.217 1114.72,689.035 1109.98,686.66C1108.42,685.881 1114.4,666.332 1114.72,664.717C1117.94,648.606 1118.07,619.959 1114.02,603.762L1152.85,619.581Z" style="fill-opacity:0;fill-rule:nonzero;stroke:black;stroke-width:4.5px;stroke-linecap:round;stroke-linejoin:round;"/>
            </g>
            <g>
                <path d="M1210.02,656.609C1205.86,660.334 1164.8,705.574 1160.38,696.742C1159.76,695.498 1163.88,691.21 1164.54,690.219C1173.82,676.299 1178.03,650.108 1178.03,633.512L1210.02,656.609Z" style="fill-rule:nonzero;"/>
                <path d="M1210.02,656.609C1205.86,660.334 1164.8,705.574 1160.38,696.742C1159.76,695.498 1163.88,691.21 1164.54,690.219C1173.82,676.299 1178.03,650.108 1178.03,633.512L1210.02,656.609Z" style="fill-opacity:0;fill-rule:nonzero;stroke:black;stroke-width:4.5px;stroke-linecap:round;stroke-linejoin:round;"/>
            </g>
            <g>
                <path d="M1244.88,686.727C1242.53,690.031 1213.76,724.806 1213.76,725.756C1213.76,734.213 1256.22,706.117 1259.44,702.895L1244.88,686.727Z" style="fill-rule:nonzero;"/>
                <path d="M1244.88,686.727C1242.53,690.031 1213.76,724.806 1213.76,725.756C1213.76,734.213 1256.22,706.117 1259.44,702.895L1244.88,686.727Z" style="fill-opacity:0;fill-rule:nonzero;stroke:black;stroke-width:4.5px;stroke-linecap:round;stroke-linejoin:round;"/>
            </g>
        </g>
    </g>
    <g id="Shade">
        <path d="M996.113,1268.64C846.455,1268.64 719.871,1113.89 716.716,1018.07C716.367,1007.47 676.97,1039.22 682.963,1053.23C779.552,1278.92 996.113,1268.64 996.113,1268.64Z" style="fill:rgb(176,153,132);fill-rule:nonzero;"/>
        <path d="M681.821,1049.42C684.417,1020.36 716.133,1015.95 716.133,1015.95C716.133,1015.95 660.311,877.385 715.114,735.109C641.492,846.917 648.458,981.576 681.821,1049.42Z" style="fill:rgb(115,91,69);fill-rule:nonzero;"/>
        <path d="M1317.76,1049.52C1315.16,1020.46 1283.44,1016.05 1283.44,1016.05C1283.44,1016.05 1340.83,880.022 1285.43,735.514C1349.72,823.077 1359.81,966.449 1317.76,1049.52Z" style="fill:rgb(247,197,148);fill-rule:nonzero;"/>
        <path d="M1003.46,1268.74C1153.12,1268.74 1279.71,1113.99 1282.86,1018.17C1283.21,1007.57 1322.61,1039.32 1316.61,1053.33C1220.03,1279.02 1003.46,1268.74 1003.46,1268.74Z" style="fill:rgb(255,234,229);fill-rule:nonzero;"/>
        <path d="M976.714,1036.31L976.722,1036.34C949.137,1036.7 921.557,1038.09 894.062,1040.36C878.099,1041.68 862.124,1043.24 846.315,1045.87C842.793,1046.45 826.768,1048.72 825.658,1053.01C833.756,1056.62 845.003,1062.4 849.571,1072.58C1015.3,1012.91 992.911,1071.56 978.551,1217.47L997.5,1265.19L997.354,1041.79C997.523,1038.36 997.537,1040.01 997.35,1036.83C990.632,1036.28 983.88,1036.28 977.144,1036.33L976.714,1036.31Z" style="fill-rule:nonzero;"/>
        <path d="M1020.79,1038.09L1020.78,1038.11C1048.36,1038.48 1075.94,1039.87 1103.44,1042.14C1119.4,1043.46 1135.38,1045.02 1151.18,1047.64C1154.71,1048.23 1170.73,1050.5 1171.84,1054.79C1163.74,1058.39 1152.5,1064.18 1147.93,1074.35C982.196,1014.69 1004.59,1073.34 1018.95,1219.25L1000,1266.96L1000.15,1043.57C999.977,1040.14 999.963,1041.79 1000.15,1038.61C1006.87,1038.06 1013.62,1038.06 1020.36,1038.11L1020.79,1038.09Z" style="fill-rule:nonzero;"/>
        <path d="M897,735.236L901.239,735.343C847.843,737.021 808.781,781.144 807.464,833.237C807.641,884.353 849.321,929.815 901.226,931.129L897,931.236C842.876,931.236 799,887.36 799,833.236C799,779.112 842.876,735.236 897,735.236Z" style="fill-rule:nonzero;"/>
        <path d="M898.113,735.237L893.874,735.344C947.27,737.022 986.333,781.145 987.65,833.237C987.472,884.353 945.792,929.815 893.887,931.13L898.113,931.237C952.237,931.237 996.113,887.361 996.113,833.237C996.113,779.113 952.237,735.237 898.113,735.237Z" style="fill:rgb(53,53,53);fill-rule:nonzero;"/>
        <path d="M1101.46,735.084L1105.7,735.191C1052.31,736.869 1013.24,780.992 1011.93,833.084C1012.11,884.2 1053.79,929.662 1105.69,930.977L1101.46,931.084C1047.34,931.084 1003.46,887.208 1003.46,833.084C1003.46,778.96 1047.34,735.084 1101.46,735.084Z" style="fill-rule:nonzero;"/>
        <path d="M1102.58,735.084L1098.34,735.191C1151.73,736.869 1190.8,780.992 1192.11,833.084C1191.94,884.201 1150.26,929.662 1098.35,930.977L1102.58,931.084C1156.7,931.084 1200.58,887.208 1200.58,833.084C1200.58,778.96 1156.7,735.084 1102.58,735.084Z" style="fill:rgb(53,53,53);fill-rule:nonzero;"/>
    </g>
    <g id="Wire">
        <g>
            <path d="M897.5,931.736C843.376,931.736 799.5,887.86 799.5,833.736C799.5,779.612 843.376,735.736 897.5,735.736C951.624,735.736 995.5,779.612 995.5,833.736C995.5,887.86 951.624,931.736 897.5,931.736Z" style="fill-opacity:0;fill-rule:nonzero;stroke:black;stroke-width:5px;"/>
            <path d="M1103.5,931.736C1049.38,931.736 1005.5,887.86 1005.5,833.736C1005.5,779.612 1049.38,735.736 1103.5,735.736C1157.62,735.736 1201.5,779.612 1201.5,833.736C1201.5,887.86 1157.62,931.736 1103.5,931.736Z" style="fill-opacity:0;fill-rule:nonzero;stroke:black;stroke-width:5px;"/>
            <path d="M759.75,815.236C737.797,815.236 720,797.44 720,775.486C720,753.533 737.797,735.736 759.75,735.736C781.703,735.736 799.5,753.533 799.5,775.486C799.5,797.44 781.703,815.236 759.75,815.236Z" style="fill-opacity:0;fill-rule:nonzero;stroke:black;stroke-width:5px;"/>
            <path d="M1241.25,815.236C1219.3,815.236 1201.5,797.44 1201.5,775.486C1201.5,753.533 1219.3,735.736 1241.25,735.736C1263.2,735.736 1281,753.533 1281,775.486C1281,797.44 1263.2,815.236 1241.25,815.236Z" style="fill-opacity:0;fill-rule:nonzero;stroke:black;stroke-width:5px;"/>
        </g>
        <path d="M726.436,1016.17C791.425,1017.62 858.143,1071.54 901.603,1114.09C941.486,1155.7 986.741,1210.6 997.755,1269.31C855.574,1267.72 737.202,1183.49 682.321,1053.73C683.371,1044.15 687.306,1035.36 693.899,1028.35C702.806,1019.43 714.304,1016.94 726.436,1016.17Z" style="fill-opacity:0;fill-rule:nonzero;stroke:black;stroke-width:5px;"/>
        <path d="M1274.32,1016.17C1209.33,1017.62 1142.61,1071.54 1099.15,1114.09C1059.27,1155.7 1014.01,1210.6 1003,1269.31C1145.18,1267.72 1263.55,1183.49 1318.43,1053.73C1317.38,1044.15 1313.45,1035.36 1306.85,1028.35C1297.95,1019.43 1286.45,1016.94 1274.32,1016.17Z" style="fill-opacity:0;fill-rule:nonzero;stroke:black;stroke-width:5px;"/>
        <path d="M715.614,735.609C780,639.287 885.261,584.838 1000.5,583.38C1114.41,583.182 1221.81,641.508 1285.39,735.609" style="fill-opacity:0;stroke:black;stroke-width:5px;"/>
        <path d="M1001.21,1014.43C1074.42,1014.61 1144.98,1019.49 1217.52,1029.33" style="fill-opacity:0;fill-rule:nonzero;stroke:black;stroke-width:5px;"/>
        <path d="M1177.06,1050.69C1118.94,1040.61 1059.91,1037.23 1001,1036.53C941.22,1036.79 882.808,1040.62 823.823,1050.39" style="fill-opacity:0;fill-rule:nonzero;stroke:black;stroke-width:5px;"/>
        <path d="M783.65,1029.33C858.667,1018.15 925.442,1015.68 1001.21,1014.43" style="fill-opacity:0;fill-rule:nonzero;stroke:black;stroke-width:5px;"/>
        <g transform="matrix(0.979128,0,0,0.979128,400.589,210.302)">
            <circle cx="612.189" cy="731.164" r="350.133" style="fill:none;stroke:black;stroke-width:8.17px;stroke-linecap:round;stroke-linejoin:round;stroke-miterlimit:1.5;"/>
        </g>
    </g>
</svg>
